<svg width="20" height="20" viewBox="0 0 20 20" fill="none" xmlns="http://www.w3.org/2000/svg">
<path d="M1.26256 7.23744C1.77513 7.75 2.60008 7.75 4.25 7.75C5.89992 7.75 6.72487 7.75 7.23744 7.23744C7.75 6.72487 7.75 5.89992 7.75 4.25C7.75 2.60008 7.75 1.77513 7.23744 1.26256C6.72487 0.75 5.89992 0.75 4.25 0.75C2.60008 0.75 1.77513 0.75 1.26256 1.26256C0.75 1.77513 0.75 2.60008 0.75 4.25C0.75 5.89992 0.75 6.72487 1.26256 7.23744Z" stroke="#838383" stroke-width="1.5" stroke-linecap="round" stroke-linejoin="round"/>
<path d="M1.26256 18.2374C1.77513 18.75 2.60008 18.75 4.25 18.75C5.89992 18.75 6.72487 18.75 7.23744 18.2374C7.75 17.7249 7.75 16.8999 7.75 15.25C7.75 13.6001 7.75 12.7751 7.23744 12.2626C6.72487 11.75 5.89992 11.75 4.25 11.75C2.60008 11.75 1.77513 11.75 1.26256 12.2626C0.75 12.7751 0.75 13.6001 0.75 15.25C0.75 16.8999 0.75 17.7249 1.26256 18.2374Z" stroke="#838383" stroke-width="1.5" stroke-linecap="round" stroke-linejoin="round"/>
<path d="M12.75 1.75H18.75" stroke="#838383" stroke-width="1.5" stroke-linecap="round" stroke-linejoin="round"/>
<path d="M12.75 12.75H18.75" stroke="#838383" stroke-width="1.5" stroke-linecap="round" stroke-linejoin="round"/>
<path d="M12.75 6.75H18.75" stroke="#838383" stroke-width="1.5" stroke-linecap="round" stroke-linejoin="round"/>
<path d="M12.75 17.75H18.75" stroke="#838383" stroke-width="1.5" stroke-linecap="round" stroke-linejoin="round"/>
</svg>
