<svg width="17" height="15" viewBox="0 0 17 15" fill="none" xmlns="http://www.w3.org/2000/svg">
<path d="M0.75 3.25H3.25" stroke="#14120F" stroke-width="1.5" stroke-linecap="round" stroke-linejoin="round"/>
<path d="M0.75 11.584H5.75" stroke="#14120F" stroke-width="1.5" stroke-linecap="round" stroke-linejoin="round"/>
<path d="M13.25 11.584L15.75 11.584" stroke="#14120F" stroke-width="1.5" stroke-linecap="round" stroke-linejoin="round"/>
<path d="M10.75 3.25L15.75 3.25" stroke="#14120F" stroke-width="1.5" stroke-linecap="round" stroke-linejoin="round"/>
<path d="M3.25 3.25C3.25 2.47343 3.25 2.08515 3.37687 1.77886C3.54602 1.37048 3.87048 1.04602 4.27886 0.876867C4.58515 0.75 4.97343 0.75 5.75 0.75C6.52657 0.75 6.91485 0.75 7.22114 0.876867C7.62952 1.04602 7.95398 1.37048 8.12313 1.77886C8.25 2.08515 8.25 2.47343 8.25 3.25C8.25 4.02657 8.25 4.41485 8.12313 4.72114C7.95398 5.12952 7.62952 5.45398 7.22114 5.62313C6.91485 5.75 6.52657 5.75 5.75 5.75C4.97343 5.75 4.58515 5.75 4.27886 5.62313C3.87048 5.45398 3.54602 5.12952 3.37687 4.72114C3.25 4.41485 3.25 4.02657 3.25 3.25Z" stroke="#14120F" stroke-width="1.5"/>
<path d="M8.25 11.584C8.25 10.8074 8.25 10.4191 8.37687 10.1128C8.54602 9.70447 8.87048 9.38001 9.27886 9.21085C9.58515 9.08398 9.97343 9.08398 10.75 9.08398C11.5266 9.08398 11.9149 9.08398 12.2211 9.21085C12.6295 9.38001 12.954 9.70447 13.1231 10.1128C13.25 10.4191 13.25 10.8074 13.25 11.584C13.25 12.3606 13.25 12.7488 13.1231 13.0551C12.954 13.4635 12.6295 13.788 12.2211 13.9571C11.9149 14.084 11.5266 14.084 10.75 14.084C9.97343 14.084 9.58515 14.084 9.27886 13.9571C8.87048 13.788 8.54602 13.4635 8.37687 13.0551C8.25 12.7488 8.25 12.3606 8.25 11.584Z" stroke="#14120F" stroke-width="1.5"/>
</svg>
