<svg width="20" height="20" viewBox="0 0 20 20" fill="none" xmlns="http://www.w3.org/2000/svg">
<path d="M2.5 5.83301H5" stroke="#14120F" stroke-width="1.5" stroke-linecap="round" stroke-linejoin="round"/>
<path d="M2.5 14.167H7.5" stroke="#14120F" stroke-width="1.5" stroke-linecap="round" stroke-linejoin="round"/>
<path d="M15 14.167L17.5 14.167" stroke="#14120F" stroke-width="1.5" stroke-linecap="round" stroke-linejoin="round"/>
<path d="M12.5 5.83301L17.5 5.83301" stroke="#14120F" stroke-width="1.5" stroke-linecap="round" stroke-linejoin="round"/>
<path d="M5 5.83301C5 5.05644 5 4.66815 5.12687 4.36187C5.29602 3.95349 5.62048 3.62903 6.02886 3.45988C6.33515 3.33301 6.72343 3.33301 7.5 3.33301C8.27657 3.33301 8.66485 3.33301 8.97114 3.45988C9.37952 3.62903 9.70398 3.95349 9.87313 4.36187C10 4.66815 10 5.05644 10 5.83301C10 6.60958 10 6.99786 9.87313 7.30415C9.70398 7.71253 9.37952 8.03698 8.97114 8.20614C8.66485 8.33301 8.27657 8.33301 7.5 8.33301C6.72343 8.33301 6.33515 8.33301 6.02886 8.20614C5.62048 8.03698 5.29602 7.71253 5.12687 7.30415C5 6.99786 5 6.60958 5 5.83301Z" stroke="#14120F" stroke-width="1.5"/>
<path d="M10 14.167C10 13.3904 10 13.0021 10.1269 12.6959C10.296 12.2875 10.6205 11.963 11.0289 11.7939C11.3351 11.667 11.7234 11.667 12.5 11.667C13.2766 11.667 13.6649 11.667 13.9711 11.7939C14.3795 11.963 14.704 12.2875 14.8731 12.6959C15 13.0021 15 13.3904 15 14.167C15 14.9436 15 15.3318 14.8731 15.6381C14.704 16.0465 14.3795 16.371 13.9711 16.5401C13.6649 16.667 13.2766 16.667 12.5 16.667C11.7234 16.667 11.3351 16.667 11.0289 16.5401C10.6205 16.371 10.296 16.0465 10.1269 15.6381C10 15.3318 10 14.9436 10 14.167Z" stroke="#14120F" stroke-width="1.5"/>
</svg>
